<svg xmlns="http://www.w3.org/2000/svg" width="1000" height="350" viewBox="0 0 1000 350"><defs><linearGradient id="g" x1="0" y1="0" x2="1" y2="0"><stop offset="0" stop-color="#70a5fd"/><stop offset=".5" stop-color="#bf91f3"/><stop offset="1" stop-color="#38bdae"/></linearGradient></defs><style>text{font-family:'Segoe UI','Inter','Helvetica Neue',Arial,sans-serif}.fb{transform-box:fill-box;transform-origin:center}.tf{animation:tf 5s ease-in-out infinite alternate}@keyframes tf{from{transform:translateY(0)}to{transform:translateY(-6px)}}.rg{animation:rg 4s ease-in-out infinite both}@keyframes rg{0%{stroke-dasharray:0 100}45%,80%{stroke-dasharray:100 0}100%{stroke-dasharray:0 100}}.spn{transform-box:fill-box;transform-origin:center;animation:sp 8s linear infinite}@keyframes sp{to{transform:rotate(360deg)}}.st{animation:ss 2.4s ease-in-out infinite}@keyframes ss{0%,100%{transform:scale(1)}50%{transform:scale(1.18)}}.sw{animation:sw 4.5s ease-in-out infinite}@keyframes sw{0%{transform:translateX(-80px)}40%,100%{transform:translateX(320px)}}</style><g transform="translate(30,10)"><g class="tf" style="animation-delay:-0s"><rect width="176" height="164" rx="16" fill="#161b22" stroke="#30363d"/><circle cx="88" cy="58" r="36" fill="none" stroke="#30363d" stroke-width="5"/><circle class="rg" cx="88" cy="58" r="36" fill="none" stroke="#70a5fd" stroke-width="5" stroke-linecap="round" pathLength="100" stroke-dasharray="0 100" transform="rotate(-90 88 58)" style="animation-delay:0.0s"/><text x="88" y="66" text-anchor="middle" font-size="23" font-weight="800" fill="#70a5fd">45+</text><text x="88" y="124" text-anchor="middle" font-size="15" font-weight="700" fill="#f0f6fc">REST endpoints</text><text x="88" y="145" text-anchor="middle" font-size="12" fill="#8b949e">in one platform</text></g></g><g transform="translate(221,10)"><g class="tf" style="animation-delay:-1s"><rect width="176" height="164" rx="16" fill="#161b22" stroke="#30363d"/><circle cx="88" cy="58" r="36" fill="none" stroke="#30363d" stroke-width="5"/><circle class="rg" cx="88" cy="58" r="36" fill="none" stroke="#bf91f3" stroke-width="5" stroke-linecap="round" pathLength="100" stroke-dasharray="0 100" transform="rotate(-90 88 58)" style="animation-delay:0.3s"/><text x="88" y="66" text-anchor="middle" font-size="23" font-weight="800" fill="#bf91f3">8.1</text><text x="88" y="124" text-anchor="middle" font-size="15" font-weight="700" fill="#f0f6fc">CGPA</text><text x="88" y="145" text-anchor="middle" font-size="12" fill="#8b949e">B.E. Computer Science</text></g></g><g transform="translate(412,10)"><g class="tf" style="animation-delay:-2s"><rect width="176" height="164" rx="16" fill="#161b22" stroke="#30363d"/><circle cx="88" cy="58" r="36" fill="none" stroke="#30363d" stroke-width="5"/><circle class="rg" cx="88" cy="58" r="36" fill="none" stroke="#38bdae" stroke-width="5" stroke-linecap="round" pathLength="100" stroke-dasharray="0 100" transform="rotate(-90 88 58)" style="animation-delay:0.6s"/><text x="88" y="66" text-anchor="middle" font-size="23" font-weight="800" fill="#38bdae">3</text><text x="88" y="124" text-anchor="middle" font-size="15" font-weight="700" fill="#f0f6fc">Internships</text><text x="88" y="145" text-anchor="middle" font-size="12" fill="#8b949e">Java · React · Spring</text></g></g><g transform="translate(603,10)"><g class="tf" style="animation-delay:-3s"><rect width="176" height="164" rx="16" fill="#161b22" stroke="#30363d"/><circle cx="88" cy="58" r="36" fill="none" stroke="#30363d" stroke-width="5"/><circle class="rg" cx="88" cy="58" r="36" fill="none" stroke="#70a5fd" stroke-width="5" stroke-linecap="round" pathLength="100" stroke-dasharray="0 100" transform="rotate(-90 88 58)" style="animation-delay:0.9s"/><text x="88" y="66" text-anchor="middle" font-size="23" font-weight="800" fill="#70a5fd">10+</text><text x="88" y="124" text-anchor="middle" font-size="15" font-weight="700" fill="#f0f6fc">Events led</text><text x="88" y="145" text-anchor="middle" font-size="12" fill="#8b949e">as Dept. Secretary</text></g></g><g transform="translate(794,10)"><g class="tf" style="animation-delay:-4s"><rect width="176" height="164" rx="16" fill="#161b22" stroke="#30363d"/><circle cx="88" cy="58" r="36" fill="none" stroke="#30363d" stroke-width="5"/><circle class="rg" cx="88" cy="58" r="36" fill="none" stroke="#bf91f3" stroke-width="5" stroke-linecap="round" pathLength="100" stroke-dasharray="0 100" transform="rotate(-90 88 58)" style="animation-delay:1.2s"/><text x="88" y="66" text-anchor="middle" font-size="23" font-weight="800" fill="#bf91f3">150+</text><text x="88" y="124" text-anchor="middle" font-size="15" font-weight="700" fill="#f0f6fc">Students</text><text x="88" y="145" text-anchor="middle" font-size="12" fill="#8b949e">coordinated</text></g></g><g transform="translate(30,196)"><clipPath id="k0"><rect width="176" height="140" rx="16"/></clipPath><rect width="176" height="140" rx="16" fill="#161b22" stroke="#70a5fd" stroke-opacity=".5"/><g transform="translate(88,36)"><circle class="spn" r="24" fill="none" stroke="#70a5fd" stroke-width="1.5" stroke-dasharray="4 5"/><path class="st fb" d="M0-15 4.4-5.2 15-4.6 7 2.4 9.3 12.8 0 7.4-9.3 12.8-7 2.4-15-4.6-4.4-5.2Z" fill="#70a5fd"/></g><text x="88" y="86" text-anchor="middle" font-size="14" font-weight="700" fill="#f0f6fc">Oracle Java</text><text x="88" y="104" text-anchor="middle" font-size="14" font-weight="700" fill="#f0f6fc">Foundations</text><text x="88" y="124" text-anchor="middle" font-size="11.5" fill="#8b949e">Oracle</text><g clip-path="url(#k0)"><g transform="skewX(-20)"><rect class="sw" x="-80" y="0" width="40" height="140" fill="#fff" fill-opacity=".08" style="animation-delay:0.0s"/></g></g></g><g transform="translate(221,196)"><clipPath id="k1"><rect width="176" height="140" rx="16"/></clipPath><rect width="176" height="140" rx="16" fill="#161b22" stroke="#bf91f3" stroke-opacity=".5"/><g transform="translate(88,36)"><circle class="spn" r="24" fill="none" stroke="#bf91f3" stroke-width="1.5" stroke-dasharray="4 5"/><path class="st fb" d="M0-15 4.4-5.2 15-4.6 7 2.4 9.3 12.8 0 7.4-9.3 12.8-7 2.4-15-4.6-4.4-5.2Z" fill="#bf91f3"/></g><text x="88" y="86" text-anchor="middle" font-size="14" font-weight="700" fill="#f0f6fc">OCI 2023 AI</text><text x="88" y="104" text-anchor="middle" font-size="14" font-weight="700" fill="#f0f6fc">Foundations</text><text x="88" y="124" text-anchor="middle" font-size="11.5" fill="#8b949e">Oracle Cloud</text><g clip-path="url(#k1)"><g transform="skewX(-20)"><rect class="sw" x="-80" y="0" width="40" height="140" fill="#fff" fill-opacity=".08" style="animation-delay:0.7s"/></g></g></g><g transform="translate(412,196)"><clipPath id="k2"><rect width="176" height="140" rx="16"/></clipPath><rect width="176" height="140" rx="16" fill="#161b22" stroke="#38bdae" stroke-opacity=".5"/><g transform="translate(88,36)"><circle class="spn" r="24" fill="none" stroke="#38bdae" stroke-width="1.5" stroke-dasharray="4 5"/><path class="st fb" d="M0-15 4.4-5.2 15-4.6 7 2.4 9.3 12.8 0 7.4-9.3 12.8-7 2.4-15-4.6-4.4-5.2Z" fill="#38bdae"/></g><text x="88" y="86" text-anchor="middle" font-size="14" font-weight="700" fill="#f0f6fc">Python</text><text x="88" y="104" text-anchor="middle" font-size="14" font-weight="700" fill="#f0f6fc">Programming</text><text x="88" y="124" text-anchor="middle" font-size="11.5" fill="#8b949e">IBM SkillsBuild</text><g clip-path="url(#k2)"><g transform="skewX(-20)"><rect class="sw" x="-80" y="0" width="40" height="140" fill="#fff" fill-opacity=".08" style="animation-delay:1.4s"/></g></g></g><g transform="translate(603,196)"><clipPath id="k3"><rect width="176" height="140" rx="16"/></clipPath><rect width="176" height="140" rx="16" fill="#161b22" stroke="#70a5fd" stroke-opacity=".5"/><g transform="translate(88,36)"><circle class="spn" r="24" fill="none" stroke="#70a5fd" stroke-width="1.5" stroke-dasharray="4 5"/><path class="st fb" d="M0-15 4.4-5.2 15-4.6 7 2.4 9.3 12.8 0 7.4-9.3 12.8-7 2.4-15-4.6-4.4-5.2Z" fill="#70a5fd"/></g><text x="88" y="86" text-anchor="middle" font-size="14" font-weight="700" fill="#f0f6fc">Hackathon:</text><text x="88" y="104" text-anchor="middle" font-size="14" font-weight="700" fill="#f0f6fc">Inno-Pulse</text><text x="88" y="124" text-anchor="middle" font-size="11.5" fill="#8b949e">Innovation metrics app</text><g clip-path="url(#k3)"><g transform="skewX(-20)"><rect class="sw" x="-80" y="0" width="40" height="140" fill="#fff" fill-opacity=".08" style="animation-delay:2.1s"/></g></g></g><g transform="translate(794,196)"><clipPath id="k4"><rect width="176" height="140" rx="16"/></clipPath><rect width="176" height="140" rx="16" fill="#161b22" stroke="#bf91f3" stroke-opacity=".5"/><g transform="translate(88,36)"><circle class="spn" r="24" fill="none" stroke="#bf91f3" stroke-width="1.5" stroke-dasharray="4 5"/><path class="st fb" d="M0-15 4.4-5.2 15-4.6 7 2.4 9.3 12.8 0 7.4-9.3 12.8-7 2.4-15-4.6-4.4-5.2Z" fill="#bf91f3"/></g><text x="88" y="86" text-anchor="middle" font-size="14" font-weight="700" fill="#f0f6fc">Paper</text><text x="88" y="104" text-anchor="middle" font-size="14" font-weight="700" fill="#f0f6fc">Presentation</text><text x="88" y="124" text-anchor="middle" font-size="11.5" fill="#8b949e">Sri Sai Ranganathan, 2025</text><g clip-path="url(#k4)"><g transform="skewX(-20)"><rect class="sw" x="-80" y="0" width="40" height="140" fill="#fff" fill-opacity=".08" style="animation-delay:2.8s"/></g></g></g></svg>